<?xml version="1.0" encoding="UTF-8" standalone="no"?>
<!-- Created with Inkscape (http://www.inkscape.org/) -->

<svg
   width="640"
   height="640"
   viewBox="0 0 169.33334 169.33334"
   version="1.1"
   id="svg1"
   xml:space="preserve"
   sodipodi:docname="logo.svg"
   inkscape:version="1.3 (0e150ed, 2023-07-21)"
   xmlns:inkscape="http://www.inkscape.org/namespaces/inkscape"
   xmlns:sodipodi="http://sodipodi.sourceforge.net/DTD/sodipodi-0.dtd"
   xmlns:xlink="http://www.w3.org/1999/xlink"
   xmlns="http://www.w3.org/2000/svg"
   xmlns:svg="http://www.w3.org/2000/svg"
   xmlns:rdf="http://www.w3.org/1999/02/22-rdf-syntax-ns#"
   xmlns:cc="http://creativecommons.org/ns#"
   xmlns:dc="http://purl.org/dc/elements/1.1/"><title
     id="title15">CHERRY TESTTOOL LOGO</title><sodipodi:namedview
     id="namedview1"
     pagecolor="#ffffff"
     bordercolor="#000000"
     borderopacity="0.25"
     inkscape:showpageshadow="2"
     inkscape:pageopacity="0.0"
     inkscape:pagecheckerboard="0"
     inkscape:deskcolor="#d1d1d1"
     inkscape:document-units="mm"
     inkscape:zoom="1.2288426"
     inkscape:cx="306.38585"
     inkscape:cy="256.74565"
     inkscape:window-width="1472"
     inkscape:window-height="824"
     inkscape:window-x="1"
     inkscape:window-y="37"
     inkscape:window-maximized="0"
     inkscape:current-layer="layer4" /><defs
     id="defs1"><linearGradient
       id="linearGradient12"
       inkscape:collect="always"><stop
         style="stop-color:#0d7622;stop-opacity:1"
         offset="0"
         id="stop12" /><stop
         style="stop-color:#35ba29;stop-opacity:1"
         offset="0.67319614"
         id="stop1" /><stop
         style="stop-color:#b8e30a;stop-opacity:1"
         offset="1"
         id="stop13" /></linearGradient><linearGradient
       inkscape:collect="always"
       xlink:href="#linearGradient12"
       id="linearGradient13"
       x1="125.39382"
       y1="132.77531"
       x2="109.18225"
       y2="105.28265"
       gradientUnits="userSpaceOnUse"
       gradientTransform="matrix(1.2285915,0,0,1.216717,-26.731014,-30.419164)" /><linearGradient
       inkscape:collect="always"
       xlink:href="#linearGradient12"
       id="linearGradient4"
       gradientUnits="userSpaceOnUse"
       x1="125.39382"
       y1="132.77531"
       x2="109.18225"
       y2="105.28265"
       gradientTransform="matrix(1.1863321,0,0,1.1863321,-87.025004,-25.770768)" /></defs><g
     inkscape:label="cherry-1-1"
     inkscape:groupmode="layer"
     id="layer1"
     transform="translate(-1.1,-1)"
     style="display:inline;fill:#71ba2d;fill-opacity:0.556863"><ellipse
       style="display:inline;fill:url(#linearGradient4);fill-opacity:1;stroke:#ffffff;stroke-width:0.313883;stroke-opacity:1"
       id="path4-2"
       inkscape:label="path4"
       cx="54.998474"
       cy="120.73705"
       rx="42.67841"
       ry="44.470917" /><path
       style="display:inline;fill:#8ccf2e;fill-opacity:1;stroke-width:0.297781"
       id="path4-6-0"
       sodipodi:type="arc"
       sodipodi:cx="55.150059"
       sodipodi:cy="119.89443"
       sodipodi:rx="31.938484"
       sodipodi:ry="32.340321"
       sodipodi:start="6.2547546"
       sodipodi:end="6.2402664"
       sodipodi:open="true"
       sodipodi:arc-type="arc"
       d="M 87.075636,118.9751 A 31.938484,32.340321 0 0 1 56.1736,152.21814 31.938484,32.340321 0 0 1 23.231896,121.04792 31.938484,32.340321 0 0 1 53.8953,87.579079 31.938484,32.340321 0 0 1 87.059132,118.50685" /><path
       id="path4-6-7-4"
       style="display:inline;fill:#bde209;fill-opacity:1;stroke:#8ccf2e;stroke-width:0.297781;stroke-opacity:1"
       d="m 53.643306,87.589914 a 31.938484,32.340321 0 0 0 -4.29689,0.502506 31.938484,32.340321 0 0 0 -24.67339,22.13119 31.938484,32.340321 0 0 0 7.751038,32.38836 l -0.05757,0.0512 A 44.384659,47.302884 0 0 0 80.255185,99.790193 l -3.850801,3.447177 3.796131,-3.404717 A 31.938484,32.340321 0 0 0 53.643306,87.589914 Z" /><path
       style="display:inline;fill:#fdfdff;fill-opacity:1;stroke:#ffffff;stroke-width:0.287335;stroke-opacity:1"
       id="path13-5"
       sodipodi:type="arc"
       sodipodi:cx="75.212051"
       sodipodi:cy="90.706017"
       sodipodi:rx="15.055539"
       sodipodi:ry="10.449436"
       sodipodi:start="6.2547546"
       sodipodi:end="6.2402664"
       sodipodi:open="true"
       sodipodi:arc-type="arc"
       d="M 90.261506,90.408972 A 15.055539,10.449436 0 0 1 75.69454,101.15009 15.055539,10.449436 0 0 1 60.166092,91.078719 15.055539,10.449436 0 0 1 74.620568,80.264648 15.055539,10.449436 0 0 1 90.253726,90.257676"
       inkscape:label="path13"
       transform="matrix(0.99301755,0.11796674,-0.13099091,0.99138357,0,0)" /></g><g
     inkscape:groupmode="layer"
     id="layer3"
     inkscape:label="cherry-1-2"
     style="display:inline"><path
       id="path19-0-5"
       style="display:inline;fill:#97dd0b;fill-opacity:1;stroke:#97dd0b;stroke-width:0.266829;stroke-opacity:1"
       d="M 48.672494,25.144005 A 39.655267,38.934325 29.187158 0 0 5.9409663,53.015468 39.655267,38.934325 29.187158 0 0 32.883857,68.956868 39.655267,38.934325 29.187158 0 0 75.64453,41.002537 39.655267,38.934325 29.187158 0 0 48.672494,25.144005 Z" /><path
       id="path19-0-5-7"
       style="display:inline;fill:#0c6e1d;fill-opacity:1;stroke:#97dd0b;stroke-width:0.266829;stroke-opacity:1"
       d="M 43.340899,35.230924 A 30.657515,28.793402 0 0 0 12.967559,60.291927 39.655267,38.934325 29.187158 0 0 32.883656,68.957031 39.655267,38.934325 29.187158 0 0 70.955234,51.527604 30.657515,28.793402 0 0 0 43.340899,35.230924 Z" /></g><g
     inkscape:groupmode="layer"
     id="layer4"
     inkscape:label="cherry-1-3"><path
       id="path19-0-5-4"
       style="display:inline;opacity:1;mix-blend-mode:normal;fill:#0c6e1d;fill-opacity:1;stroke:#97dd0b;stroke-width:0.376946;stroke-opacity:1"
       d="m 65.633099,32.190413 a 78.91955,65.682477 0 0 1 5.589991,23.469014 78.91955,65.682477 0 0 1 -17.169963,41.277038 9.3628218,31.998789 76.56022 0 0 1.324503,3.199215 11.718961,4.7025427 10.747447 0 0 1.857301,0.6081 11.718961,4.7025427 10.747447 0 0 12.028536,0.002 52.032197,46.348351 0 0 0 2.851584,-2.539589 78.91955,65.682477 0 0 0 0.934335,-1.062112 52.032197,46.348351 0 0 0 2.539966,-3.021944 A 78.91955,65.682477 0 0 0 77.389291,91.68928 52.032197,46.348351 0 0 0 84.991618,67.704413 52.032197,46.348351 0 0 0 67.271286,32.869617 64.28622,52.086177 0 0 0 65.633099,32.1904 Z" /></g><g
     inkscape:groupmode="layer"
     id="layer5"
     inkscape:label="cherry-2-1"
     style="display:inline"><ellipse
       style="display:inline;fill:url(#linearGradient13);fill-opacity:1;stroke:#ffffff;stroke-width:0.324;stroke-dasharray:none;stroke-opacity:1"
       id="path4"
       inkscape:label="path4"
       cx="120.35158"
       cy="119.84106"
       rx="44.198696"
       ry="45.609928" /><path
       style="display:inline;fill:#8ccf2e;fill-opacity:1;stroke-width:0.306895"
       id="path4-6"
       sodipodi:type="arc"
       sodipodi:cx="119.8884"
       sodipodi:cy="119.39899"
       sodipodi:rx="33.076195"
       sodipodi:ry="33.168636"
       sodipodi:start="6.2547546"
       sodipodi:end="6.2402664"
       sodipodi:open="true"
       sodipodi:arc-type="arc"
       d="M 152.95123,118.45611 A 33.076195,33.168636 0 0 1 120.9484,152.55059 33.076195,33.168636 0 0 1 86.833248,120.58202 33.076195,33.168636 0 0 1 118.58894,86.255957 33.076195,33.168636 0 0 1 152.93413,117.97586" /><path
       id="path4-6-7"
       style="display:inline;fill:#bde209;fill-opacity:1;stroke:#8ccf2e;stroke-width:0.306895;stroke-opacity:1"
       d="m 118.32782,86.267469 a 33.076193,33.168637 0 0 0 -4.44997,0.515376 33.076193,33.168637 0 0 0 -25.552223,22.697435 33.076193,33.168637 0 0 0 8.027135,33.21791 l -0.05965,0.0525 A 45.965724,48.514429 0 0 0 145.88762,98.779664 l -3.36395,2.982496 3.30795,-2.938354 a 33.076193,33.168637 0 0 0 -27.5038,-12.556337 z" /><path
       style="display:inline;fill:#fdfdff;fill-opacity:1;stroke:#ffffff;stroke-width:0.289862;stroke-opacity:1"
       id="path13"
       sodipodi:type="arc"
       sodipodi:cx="118.12524"
       sodipodi:cy="97.450523"
       sodipodi:rx="14.801538"
       sodipodi:ry="10.816495"
       sodipodi:start="6.2547546"
       sodipodi:end="6.2402664"
       sodipodi:open="true"
       sodipodi:arc-type="arc"
       d="m 132.92079,97.143044 a 14.801538,10.816495 0 0 1 -14.3212,11.118416 14.801538,10.816495 0 0 1 -15.26647,-10.425142 14.801538,10.816495 0 0 1 14.21061,-11.193939 14.801538,10.816495 0 0 1 15.36941,10.344055"
       inkscape:label="path13" /></g><g
     inkscape:groupmode="layer"
     id="layer6"
     inkscape:label="cherry-2-2"
     style="display:inline"><path
       id="path19"
       style="display:inline;fill:#97dd0b;fill-opacity:1;stroke:#97dd0b;stroke-width:0.290334;stroke-opacity:1"
       d="m 122.8537,5.2922435 a 44.596613,33.450156 3.7129107 0 0 -46.669066,30.4919595 44.596613,33.450156 3.7129107 0 0 0.02645,0.880902 43.217844,34.428006 3.7129107 0 0 30.012106,12.326587 43.217844,34.428006 3.7129107 0 0 45.35683,-31.557228 43.217844,34.428006 3.7129107 0 0 0.0504,-1.963472 44.596613,33.450156 3.7129107 0 0 -28.77657,-10.1787388 z" /><path
       id="path19-7"
       style="display:inline;fill:#0c6e1d;fill-opacity:1;stroke:#97dd0b;stroke-width:0.290334;stroke-opacity:1"
       d="m 128.02149,16.476138 a 39.389928,28.1912 3.7129107 0 0 -41.132825,25.58114 39.389928,28.1912 3.7129107 0 0 0.06488,1.854467 43.217844,34.428006 3.7129107 0 0 19.269695,5.080026 43.217844,34.428006 3.7129107 0 0 44.34891,-25.757054 39.389928,28.1912 3.7129107 0 0 -22.55066,-6.758579 z" /></g><g
     inkscape:groupmode="layer"
     id="layer8"
     inkscape:label="cherry-2-3"
     style="display:inline"><path
       id="path1"
       style="display:inline;fill:#0c6e1d;fill-opacity:1;stroke:#97dd0b;stroke-width:0.342515;stroke-opacity:1"
       inkscape:label="path1"
       d="m 74.195082,27.067496 -6.402235,4.734371 a 73.529938,85.233861 0 0 1 43.766143,69.491923 8.7882062,25.444089 56.81265 0 0 1.09073,0.66797 2.6362371,9.1477708 86.229999 0 0 4.56723,-0.0131 2.6362371,9.1477708 86.229999 0 0 8.53292,-3.309823 l -0.008,-0.03777 a 2.6362371,9.1477708 86.229999 0 0 -0.008,-0.01954 73.535382,83.497313 0 0 0 -51.536281,-71.514006 z" /></g><metadata
     id="metadata15"><rdf:RDF><cc:Work
         rdf:about=""><cc:license
           rdf:resource="http://creativecommons.org/licenses/by/4.0/" /><dc:title>CHERRY TESTTOOL LOGO</dc:title><dc:date>2023/10/22</dc:date><dc:creator><cc:Agent><dc:title>agw.lvs.sainokuni@gmail.com</dc:title></cc:Agent></dc:creator><dc:publisher><cc:Agent><dc:title>agw.lvs.sainokuni@gmail.com</dc:title></cc:Agent></dc:publisher><dc:subject><rdf:Bag><rdf:li>cherry lim</rdf:li></rdf:Bag></dc:subject></cc:Work><cc:License
         rdf:about="http://creativecommons.org/licenses/by/4.0/"><cc:permits
           rdf:resource="http://creativecommons.org/ns#Reproduction" /><cc:permits
           rdf:resource="http://creativecommons.org/ns#Distribution" /><cc:requires
           rdf:resource="http://creativecommons.org/ns#Notice" /><cc:requires
           rdf:resource="http://creativecommons.org/ns#Attribution" /><cc:permits
           rdf:resource="http://creativecommons.org/ns#DerivativeWorks" /></cc:License></rdf:RDF></metadata></svg>
